<svg width="241" height="72" viewBox="0 0 241 72" fill="none" xmlns="http://www.w3.org/2000/svg">
<path d="M27.18 56.08C27.18 58.04 27.8 59.36 29.04 60.04C28.72 60.64 28.24 61.1 27.6 61.42C27 61.74 26.3 61.9 25.5 61.9C24.34 61.9 23.38 61.58 22.62 60.94C21.86 60.26 21.4 59.36 21.24 58.24C20.6 59.56 19.56 60.56 18.12 61.24C16.72 61.96 15.2 62.32 13.56 62.32C9.48 62.32 6.52 60.76 4.68 57.64C2.84 54.52 1.92 50.52 1.92 45.64C1.92 40.6 3 36.6 5.16 33.64C7.36 30.68 10.76 29.2 15.36 29.2C17.28 29.2 19.02 29.46 20.58 29.98V19L27.18 18.28V56.08ZM20.58 34.66C18.74 33.42 16.9 32.8 15.06 32.8C12.62 32.8 11.02 33.96 10.26 36.28C9.5 38.6 9.12 41.62 9.12 45.34C9.12 48.9 9.56 51.96 10.44 54.52C11.32 57.04 12.94 58.3 15.3 58.3C17.06 58.3 18.38 57.64 19.26 56.32C20.14 54.96 20.58 53.28 20.58 51.28V34.66ZM54.9206 52.54C55.8406 52.98 56.3006 53.84 56.3006 55.12C56.3006 56.56 55.8206 57.84 54.8606 58.96C53.9006 60.04 52.6606 60.86 51.1406 61.42C49.6206 62.02 48.0806 62.32 46.5206 62.32C42.1206 62.32 38.8606 60.9 36.7406 58.06C34.6206 55.18 33.5606 51.32 33.5606 46.48C33.5606 41.32 34.7006 37.16 36.9806 34C39.3006 30.8 42.8006 29.2 47.4806 29.2C50.4406 29.2 52.8206 29.98 54.6206 31.54C56.4206 33.06 57.3206 35.22 57.3206 38.02C57.3206 41.5 56.1006 43.94 53.6606 45.34C51.2606 46.74 47.9806 47.44 43.8206 47.44C42.6606 47.44 41.5606 47.4 40.5206 47.32C40.6406 50.48 41.1606 53 42.0806 54.88C43.0406 56.76 44.7206 57.7 47.1206 57.7C48.8806 57.7 50.4206 57.26 51.7406 56.38C53.1006 55.46 54.1606 54.18 54.9206 52.54ZM46.5206 32.62C44.3606 32.62 42.8406 33.76 41.9606 36.04C41.0806 38.28 40.6006 41.04 40.5206 44.32C41.7206 44.4 42.6006 44.44 43.1606 44.44C48.2006 44.44 50.7206 42.42 50.7206 38.38C50.7206 36.74 50.3606 35.38 49.6406 34.3C48.9606 33.18 47.9206 32.62 46.5206 32.62ZM84.5011 30.4L75.5611 61H67.4011L59.1211 30.4H65.9611L72.0811 56.98L78.2011 30.4H84.5011Z" fill="#F9F1FF"/>
<path d="M114.1 32.56C114.1 36.04 113.08 38.86 111.04 41.02C109 43.14 106.26 44.2 102.82 44.2C101.54 44.2 100.42 44 99.46 43.6C98.5 43.16 98.02 42.44 98.02 41.44C101.06 41.44 103.3 40.74 104.74 39.34C106.18 37.94 106.9 35.76 106.9 32.8C106.9 30.28 106.28 28.42 105.04 27.22C103.84 25.98 101.98 25.36 99.46 25.36C98.22 25.36 96.94 25.46 95.62 25.66V61H88.6V21.64C93.32 21.32 97.08 21.16 99.88 21.16C104.44 21.16 107.94 22.06 110.38 23.86C112.86 25.62 114.1 28.52 114.1 32.56ZM125.387 18.28V56.08C125.387 58.04 126.007 59.36 127.247 60.04C126.927 60.64 126.387 61.1 125.627 61.42C124.907 61.74 124.147 61.9 123.347 61.9C121.827 61.9 120.687 61.46 119.927 60.58C119.167 59.7 118.787 58.46 118.787 56.86V19L125.387 18.28ZM150.044 58.24C149.284 59.64 148.164 60.66 146.684 61.3C145.244 61.98 143.604 62.32 141.764 62.32C139.004 62.32 136.684 61.48 134.804 59.8C132.964 58.12 132.044 55.94 132.044 53.26C132.044 46.78 137.824 43.54 149.384 43.54V38.32C149.384 36.32 149.084 34.84 148.484 33.88C147.884 32.88 146.744 32.38 145.064 32.38C143.664 32.38 142.504 32.76 141.584 33.52C140.664 34.24 140.204 35.26 140.204 36.58C140.204 37.42 140.364 38.32 140.684 39.28C140.124 39.72 139.324 39.94 138.284 39.94C136.844 39.94 135.704 39.58 134.864 38.86C134.024 38.14 133.604 37.1 133.604 35.74C133.604 33.82 134.684 32.26 136.844 31.06C139.004 29.82 141.884 29.2 145.484 29.2C148.124 29.2 150.204 29.6 151.724 30.4C153.244 31.16 154.324 32.36 154.964 34C155.644 35.6 155.984 37.76 155.984 40.48V56.08C155.984 58.04 156.604 59.36 157.844 60.04C157.524 60.64 157.044 61.1 156.404 61.42C155.804 61.74 155.104 61.9 154.304 61.9C153.144 61.9 152.184 61.58 151.424 60.94C150.664 60.26 150.204 59.36 150.044 58.24ZM144.104 58.3C145.864 58.3 147.184 57.64 148.064 56.32C148.944 54.96 149.384 53.28 149.384 51.28V46.54C142.624 46.54 139.244 48.7 139.244 53.02C139.244 54.62 139.664 55.9 140.504 56.86C141.384 57.82 142.584 58.3 144.104 58.3ZM174.704 32.74C170.704 32.74 168.704 37.1 168.704 45.82C168.704 49.38 169.144 52.26 170.024 54.46C170.944 56.62 172.704 57.7 175.304 57.7C177.064 57.7 178.564 57.24 179.804 56.32C181.084 55.36 181.944 54.02 182.384 52.3C183.064 52.62 183.544 53 183.824 53.44C184.144 53.84 184.304 54.4 184.304 55.12C184.304 56.56 183.824 57.84 182.864 58.96C181.944 60.04 180.744 60.86 179.264 61.42C177.784 62.02 176.264 62.32 174.704 62.32C170.304 62.32 167.044 60.9 164.924 58.06C162.804 55.18 161.744 51.32 161.744 46.48C161.744 41.32 162.884 37.16 165.164 34C167.484 30.8 170.964 29.2 175.604 29.2C178.324 29.2 180.564 29.76 182.324 30.88C184.084 32 184.964 33.72 184.964 36.04C184.964 37.4 184.544 38.44 183.704 39.16C182.864 39.88 181.724 40.24 180.284 40.24C179.844 40.24 179.384 40.18 178.904 40.06C178.464 39.94 178.104 39.78 177.824 39.58C178.144 38.62 178.304 37.72 178.304 36.88C178.304 34.12 177.104 32.74 174.704 32.74ZM209.882 52.54C210.802 52.98 211.262 53.84 211.262 55.12C211.262 56.56 210.782 57.84 209.822 58.96C208.862 60.04 207.622 60.86 206.102 61.42C204.582 62.02 203.042 62.32 201.482 62.32C197.082 62.32 193.822 60.9 191.702 58.06C189.582 55.18 188.522 51.32 188.522 46.48C188.522 41.32 189.662 37.16 191.942 34C194.262 30.8 197.762 29.2 202.442 29.2C205.402 29.2 207.782 29.98 209.582 31.54C211.382 33.06 212.282 35.22 212.282 38.02C212.282 41.5 211.062 43.94 208.622 45.34C206.222 46.74 202.942 47.44 198.782 47.44C197.622 47.44 196.522 47.4 195.482 47.32C195.602 50.48 196.122 53 197.042 54.88C198.002 56.76 199.682 57.7 202.082 57.7C203.842 57.7 205.382 57.26 206.702 56.38C208.062 55.46 209.122 54.18 209.882 52.54ZM201.482 32.62C199.322 32.62 197.802 33.76 196.922 36.04C196.042 38.28 195.562 41.04 195.482 44.32C196.682 44.4 197.562 44.44 198.122 44.44C203.162 44.44 205.682 42.42 205.682 38.38C205.682 36.74 205.322 35.38 204.602 34.3C203.922 33.18 202.882 32.62 201.482 32.62ZM227.762 32.38C226.562 32.38 225.602 32.7 224.882 33.34C224.162 33.94 223.802 34.82 223.802 35.98C223.802 37.54 224.322 38.82 225.362 39.82C226.442 40.78 228.082 41.86 230.282 43.06C232.042 44.02 233.442 44.88 234.482 45.64C235.562 46.4 236.482 47.38 237.242 48.58C238.002 49.74 238.382 51.16 238.382 52.84C238.382 55.88 237.282 58.22 235.082 59.86C232.922 61.5 230.162 62.32 226.802 62.32C223.882 62.32 221.422 61.82 219.422 60.82C217.462 59.82 216.482 58.16 216.482 55.84C216.482 54.48 216.902 53.44 217.742 52.72C218.582 52 219.722 51.64 221.162 51.64C222.202 51.64 223.002 51.86 223.562 52.3C223.242 53.26 223.082 54.16 223.082 55C223.082 56.28 223.482 57.3 224.282 58.06C225.082 58.78 226.162 59.14 227.522 59.14C229.002 59.14 230.122 58.76 230.882 58C231.682 57.2 232.082 56.04 232.082 54.52C232.082 52.96 231.542 51.7 230.462 50.74C229.422 49.74 227.802 48.64 225.602 47.44C223.842 46.44 222.422 45.56 221.342 44.8C220.302 44.04 219.402 43.08 218.642 41.92C217.882 40.72 217.502 39.28 217.502 37.6C217.502 34.92 218.582 32.86 220.742 31.42C222.902 29.94 225.522 29.2 228.602 29.2C231.442 29.2 233.762 29.72 235.562 30.76C237.402 31.76 238.322 33.42 238.322 35.74C238.322 37.1 237.882 38.14 237.002 38.86C236.162 39.58 235.022 39.94 233.582 39.94C232.542 39.94 231.742 39.72 231.182 39.28C231.502 38.32 231.662 37.42 231.662 36.58C231.662 35.26 231.322 34.24 230.642 33.52C230.002 32.76 229.042 32.38 227.762 32.38Z" fill="#F9F1FF"/>
</svg>
